<svg width="239" height="258" viewBox="0 0 239 258" fill="none" xmlns="http://www.w3.org/2000/svg">
<path d="M222.53 66.6501C218.02 42.7101 202.87 -8.31993 149.48 1.16007C96.09 10.6501 98.21 12.1501 62.03 15.9301C25.85 19.7201 6.58 15.9801 7.82 28.8201C7.82 28.8201 6.78 40.5901 23.5 42.3101C23.5 42.3101 36.39 43.4501 39.78 63.5001L46.67 104.28C46.67 104.28 54.65 192.88 141.73 181.43C228.81 169.98 227.04 90.5901 222.53 66.6501ZM197.29 97.9501C197.29 97.9501 194.24 136.45 153.58 144.02C112.92 151.58 93.07 109.96 93.07 109.96L64.47 55.1401C56.87 36.3801 66.28 38.2901 96.27 35.0901C126.25 31.8901 153.92 30.7001 176.62 38.5001C201.84 47.1701 197.29 97.9501 197.29 97.9501Z" fill="#FAA42C"/>
<path d="M106.39 189.37C89.4098 182.52 69.7598 191.56 62.4998 209.56C55.2398 227.56 63.1098 247.71 80.0898 254.56C97.0698 261.41 116.72 252.37 123.98 234.37C131.24 216.37 123.36 196.22 106.39 189.37ZM95.9598 238.07C85.2998 239.87 75.2098 232.69 73.4098 222.04C71.6098 211.38 78.7898 201.29 89.4398 199.49C100.1 197.69 110.19 204.87 111.99 215.52C113.79 226.18 106.61 236.27 95.9598 238.07Z" fill="black"/>
<path d="M221.72 168.94C207.93 163.5 191.93 170.77 185.98 185.19C180.03 199.61 186.39 215.7 200.18 221.15C213.97 226.59 229.97 219.32 235.92 204.9C241.87 190.48 235.51 174.38 221.72 168.94ZM213.13 207.92C204.46 209.38 196.27 203.67 194.83 195.15C193.39 186.63 199.25 178.54 207.92 177.07C216.59 175.61 224.78 181.32 226.22 189.84C227.65 198.36 221.79 206.46 213.13 207.92Z" fill="black"/>
<path d="M24.27 234.36C2.36 242 0 244.14 0 244.14C0 244.14 3.09 244.93 26.03 241.49C48.97 238.04 45.06 233 45.06 233C45.06 233 46.18 226.72 24.27 234.36Z" fill="black"/>
<path d="M42.0499 249.31C22.9599 255.97 20.8999 257.83 20.8999 257.83C20.8999 257.83 23.5899 258.52 43.5899 255.52C63.5899 252.52 60.1799 248.13 60.1799 248.13C60.1799 248.13 61.1399 242.65 42.0499 249.31Z" fill="black"/>
</svg>
