<svg width="763" height="258" viewBox="0 0 763 258" fill="none" xmlns="http://www.w3.org/2000/svg">
<path d="M222.53 66.6501C218.02 42.7101 202.87 -8.31993 149.48 1.16007C96.09 10.6501 98.21 12.1501 62.03 15.9301C25.85 19.7201 6.58 15.9801 7.82 28.8201C7.82 28.8201 6.78 40.5901 23.5 42.3101C23.5 42.3101 36.39 43.4501 39.78 63.5001L46.67 104.28C46.67 104.28 54.65 192.88 141.73 181.43C228.81 169.98 227.04 90.5901 222.53 66.6501ZM197.29 97.9501C197.29 97.9501 194.24 136.45 153.58 144.02C112.92 151.58 93.07 109.96 93.07 109.96L64.47 55.1401C56.87 36.3801 66.28 38.2901 96.27 35.0901C126.25 31.8901 153.92 30.7001 176.62 38.5001C201.84 47.1701 197.29 97.9501 197.29 97.9501Z" fill="#FAA42C"/>
<path d="M106.39 189.37C89.4098 182.52 69.7598 191.56 62.4998 209.56C55.2398 227.56 63.1098 247.71 80.0898 254.56C97.0698 261.41 116.72 252.37 123.98 234.37C131.24 216.37 123.36 196.22 106.39 189.37ZM95.9598 238.07C85.2998 239.87 75.2098 232.69 73.4098 222.04C71.6098 211.38 78.7898 201.29 89.4398 199.49C100.1 197.69 110.19 204.87 111.99 215.52C113.79 226.18 106.61 236.27 95.9598 238.07Z" fill="black"/>
<path d="M221.72 168.94C207.93 163.5 191.93 170.77 185.98 185.19C180.03 199.61 186.39 215.7 200.18 221.15C213.97 226.59 229.97 219.32 235.92 204.9C241.87 190.48 235.51 174.38 221.72 168.94ZM213.13 207.92C204.46 209.38 196.27 203.67 194.83 195.15C193.39 186.63 199.25 178.54 207.92 177.07C216.59 175.61 224.78 181.32 226.22 189.84C227.65 198.36 221.79 206.46 213.13 207.92Z" fill="black"/>
<path d="M24.27 234.36C2.36 242 0 244.14 0 244.14C0 244.14 3.09 244.93 26.03 241.49C48.97 238.04 45.06 233 45.06 233C45.06 233 46.18 226.72 24.27 234.36Z" fill="black"/>
<path d="M42.0499 249.31C22.9599 255.97 20.8999 257.83 20.8999 257.83C20.8999 257.83 23.5899 258.52 43.5899 255.52C63.5899 252.52 60.1799 248.13 60.1799 248.13C60.1799 248.13 61.1399 242.65 42.0499 249.31Z" fill="black"/>
<path d="M317.47 124.21C319.57 126.38 321.22 128.94 322.4 131.89C323.59 134.84 324.18 138.01 324.18 141.4C324.18 144.79 323.64 147.96 322.55 150.91C321.46 153.86 319.94 156.42 317.97 158.59C316 160.83 313.61 162.59 310.8 163.88C307.99 165.17 304.85 165.81 301.39 165.81C298.27 165.81 295.34 165.17 292.59 163.88C289.84 162.59 287.42 160.83 285.32 158.59C283.29 156.42 281.68 153.86 280.49 150.91C279.3 147.96 278.71 144.79 278.71 141.4C278.71 138.01 279.23 134.84 280.29 131.89C281.34 128.94 282.85 126.38 284.81 124.21C286.78 121.97 289.17 120.21 291.98 118.92C294.79 117.63 297.93 116.99 301.39 116.99C304.58 116.99 307.54 117.64 310.29 118.92C313.04 120.21 315.43 121.98 317.47 124.21ZM301.4 157.06C302.28 157.06 303.31 156.86 304.5 156.45C305.69 156.04 306.82 155.26 307.91 154.11C308.99 152.96 309.91 151.36 310.66 149.33C311.4 147.3 311.78 144.65 311.78 141.4C311.78 138.15 311.41 135.49 310.66 133.42C309.91 131.35 309 129.76 307.91 128.64C306.82 127.52 305.69 126.76 304.5 126.35C303.31 125.94 302.28 125.74 301.4 125.74C300.52 125.74 299.48 125.94 298.3 126.35C297.11 126.76 295.98 127.52 294.89 128.64C293.8 129.76 292.89 131.35 292.14 133.42C291.39 135.49 291.02 138.15 291.02 141.4C291.02 144.65 291.39 147.3 292.14 149.33C292.89 151.36 293.8 152.96 294.89 154.11C295.97 155.26 297.11 156.04 298.3 156.45C299.48 156.86 300.52 157.06 301.4 157.06Z" fill="black"/>
<path d="M404.37 142.1C404.37 138.71 404.96 135.54 406.15 132.59C407.34 129.64 408.95 127.08 410.98 124.91C413.01 122.67 415.4 120.91 418.15 119.62C420.9 118.33 423.86 117.69 427.05 117.69C430.51 117.69 433.64 118.34 436.46 119.62C439.27 120.91 441.66 122.67 443.63 124.91C445.6 127.08 447.12 129.64 448.21 132.59C449.29 135.54 449.84 138.71 449.84 142.1C449.84 145.49 449.25 148.66 448.06 151.61C446.87 154.56 445.23 157.12 443.13 159.29C441.1 161.53 438.71 163.29 435.96 164.58C433.21 165.87 430.25 166.51 427.06 166.51C423.2 166.51 419.77 165.73 416.79 164.17L416.89 179.63C416.89 181.66 416.91 183.32 416.94 184.61C416.97 185.9 417.02 186.91 417.09 187.66C417.16 188.47 417.22 189.08 417.29 189.49C413.09 189.49 409.88 188.61 407.68 186.85C405.48 185.09 404.38 182.17 404.38 178.1V142.1H404.37ZM427.05 157.76C427.93 157.76 428.96 157.56 430.15 157.15C431.34 156.74 432.47 155.98 433.56 154.86C434.64 153.74 435.56 152.15 436.31 150.08C437.06 148.01 437.43 145.35 437.43 142.1C437.43 138.85 437.06 136.2 436.31 134.17C435.56 132.14 434.65 130.56 433.56 129.44C432.47 128.32 431.34 127.56 430.15 127.15C428.96 126.74 427.93 126.54 427.05 126.54C426.17 126.54 425.13 126.74 423.95 127.15C422.76 127.56 421.63 128.32 420.54 129.44C419.45 130.56 418.54 132.13 417.79 134.17C417.04 136.2 416.67 138.85 416.67 142.1C416.67 145.35 417.04 148.02 417.79 150.08C418.54 152.15 419.45 153.74 420.54 154.86C421.62 155.98 422.76 156.74 423.95 157.15C425.13 157.56 426.17 157.76 427.05 157.76Z" fill="black"/>
<path d="M453.63 140.18C453.63 135.64 454.29 131.93 455.61 129.05C456.93 126.17 458.64 123.91 460.74 122.29C462.84 120.66 465.2 119.56 467.81 118.99C470.42 118.41 473.01 118.13 475.59 118.13H480.57C480.91 119.55 480.98 120.88 480.77 122.1C480.63 123.12 480.18 124.1 479.4 125.05C478.62 126 477.35 126.57 475.59 126.78C474.44 126.92 473.3 127.17 472.18 127.54C471.06 127.91 470.06 128.56 469.18 129.47C468.3 130.38 467.57 131.69 466.99 133.38C466.41 135.08 466.13 137.35 466.13 140.19V154.94C466.13 156.97 466.14 158.62 466.18 159.87C466.21 161.12 466.26 162.12 466.33 162.87C466.4 163.68 466.46 164.29 466.53 164.7C462.39 164.7 459.21 163.84 456.97 162.11C454.73 160.38 453.61 157.48 453.61 153.42V140.18H453.63Z" fill="black"/>
<path d="M490.69 138.86C492.52 137.71 494.59 136.84 496.89 136.27C499.19 135.69 501.6 135.41 504.11 135.41C507.63 135.41 510.99 135.92 514.18 136.94C513.98 134.84 513.53 132.97 512.86 131.35C511.98 129.25 510.66 127.72 508.89 126.77C508.21 126.43 507.48 126.18 506.7 126.01C505.92 125.84 505.02 125.76 504.01 125.76H502.89C501.94 125.83 500.99 125.98 500.04 126.22C499.09 126.46 498.14 126.75 497.19 127.08C496.24 127.42 495.29 127.71 494.34 127.94C493.39 128.18 492.47 128.3 491.59 128.3C490.64 128.3 489.72 128.1 488.84 127.69C488.03 127.22 487.31 126.44 486.7 125.35L486.5 124.94L486.7 124.64C488.73 122.47 491.12 120.72 493.87 119.4C496.62 118.08 499.62 117.32 502.87 117.11C503.21 117.04 503.5 117.01 503.73 117.01C503.97 117.01 504.25 117.01 504.59 117.01C507.71 117.01 510.55 117.57 513.13 118.69C515.71 119.81 517.94 121.35 519.84 123.32C523.7 127.52 525.7 133.05 525.84 139.9V140.71C525.84 147.76 524.04 153.49 520.45 157.9C518.69 160.07 516.57 161.83 514.09 163.19C511.61 164.55 508.85 165.39 505.8 165.73C505.39 165.8 504.99 165.83 504.58 165.83C504.17 165.83 503.73 165.83 503.26 165.83C501.84 165.83 500.34 165.71 498.79 165.47C497.23 165.23 495.7 164.78 494.21 164.1C492.65 163.49 491.23 162.69 489.94 161.71C488.65 160.73 487.57 159.46 486.69 157.9C485.4 155.93 484.72 153.53 484.66 150.68V150.07C484.66 147.43 485.2 145.22 486.29 143.46C487.27 141.67 488.73 140.14 490.69 138.86ZM511.74 143.74C510.86 143.61 509.86 143.47 508.74 143.33C507.62 143.2 506.48 143.13 505.33 143.13C504.38 143.13 503.46 143.18 502.58 143.28C501.7 143.38 500.88 143.57 500.14 143.84C498.45 144.38 497.16 145.23 496.28 146.38C495.94 146.79 495.67 147.24 495.47 147.75C495.27 148.26 495.13 148.82 495.06 149.43C494.99 149.63 494.96 149.94 494.96 150.35C494.96 151.03 495.06 151.76 495.27 152.54C495.47 153.32 495.88 154.05 496.49 154.73C497.03 155.41 497.83 155.98 498.88 156.46C499.93 156.94 501.34 157.17 503.1 157.17C503.64 157.17 504.05 157.14 504.32 157.07C506.22 157 507.88 156.46 509.3 155.44C509.98 155.03 510.55 154.54 511.03 153.97C511.5 153.4 511.91 152.77 512.25 152.09C512.99 150.8 513.5 149.48 513.78 148.12C514.05 146.77 514.19 145.51 514.19 144.36C514.12 144.36 514.07 144.34 514.04 144.31C514 144.28 513.95 144.26 513.89 144.26C513.62 144.19 513.31 144.13 512.98 144.06C512.62 143.98 512.22 143.87 511.74 143.74Z" fill="black"/>
<path d="M549.57 156C549.7 157.76 549.57 159.36 549.16 160.78C548.82 162 548.14 163.17 547.13 164.29C546.11 165.41 544.52 166.03 542.35 166.17C540.25 166.37 538.42 166.15 536.86 165.51C535.3 164.87 533.99 163.97 532.95 162.82C531.9 161.67 531.12 160.31 530.61 158.75C530.1 157.19 529.85 155.56 529.85 153.87V104.35C529.78 102.32 529.73 100.67 529.7 99.42C529.67 98.17 529.61 97.17 529.55 96.42C529.48 95.61 529.41 94.96 529.35 94.49C533.55 94.49 536.77 95.37 539.01 97.13C541.25 98.89 542.37 101.77 542.37 105.77V152.65C542.37 154.28 542.68 155.45 543.29 156.16C543.9 156.87 544.61 157.3 545.43 157.43C546.24 157.57 547.06 157.48 547.87 157.18C548.65 156.86 549.23 156.47 549.57 156Z" fill="black"/>
<path d="M588.36 124.96C590.46 127.13 592.11 129.69 593.29 132.64C594.48 135.59 595.07 138.76 595.07 142.15C595.07 145.54 594.53 148.71 593.44 151.66C592.35 154.61 590.83 157.17 588.86 159.34C586.89 161.58 584.5 163.34 581.69 164.63C578.88 165.92 575.74 166.56 572.28 166.56C569.16 166.56 566.23 165.92 563.48 164.63C560.73 163.34 558.31 161.58 556.21 159.34C554.18 157.17 552.57 154.61 551.38 151.66C550.19 148.71 549.6 145.54 549.6 142.15C549.6 138.76 550.12 135.59 551.18 132.64C552.23 129.69 553.74 127.13 555.7 124.96C557.67 122.72 560.06 120.96 562.87 119.67C565.68 118.38 568.82 117.74 572.28 117.74C575.47 117.74 578.43 118.39 581.18 119.67C583.94 120.97 586.33 122.73 588.36 124.96ZM572.29 157.81C573.17 157.81 574.2 157.61 575.39 157.2C576.58 156.79 577.71 156.01 578.8 154.86C579.88 153.71 580.8 152.11 581.55 150.08C582.29 148.05 582.67 145.4 582.67 142.15C582.67 138.9 582.3 136.24 581.55 134.17C580.8 132.1 579.89 130.51 578.8 129.39C577.71 128.27 576.58 127.51 575.39 127.1C574.2 126.69 573.17 126.49 572.29 126.49C571.41 126.49 570.37 126.69 569.19 127.1C568 127.51 566.87 128.27 565.78 129.39C564.69 130.51 563.78 132.1 563.03 134.17C562.28 136.24 561.91 138.9 561.91 142.15C561.91 145.4 562.28 148.05 563.03 150.08C563.78 152.11 564.69 153.71 565.78 154.86C566.86 156.01 568 156.79 569.19 157.2C570.38 157.61 571.41 157.81 572.29 157.81Z" fill="black"/>
<path d="M277.36 154.25C276.82 154.32 276.28 154.43 275.74 154.62C274.82 154.92 273.86 155.28 272.84 155.69C271.82 156.03 270.67 156.33 269.38 156.61C268.09 156.88 266.74 157.02 265.31 157.02C264.43 157.02 263.39 156.82 262.21 156.41C261.02 156 259.89 155.24 258.8 154.12C257.71 153 256.8 151.41 256.05 149.34C255.3 147.27 254.93 144.61 254.93 141.36C254.93 138.1 255.3 135.45 256.05 133.38C256.8 131.31 257.71 129.72 258.8 128.6C259.88 127.48 261.02 126.72 262.21 126.31C263.4 125.9 264.43 125.7 265.31 125.7C266.73 125.7 268.09 125.85 269.38 126.16C270.67 126.46 271.82 126.82 272.84 127.23C273.86 127.57 274.82 127.89 275.74 128.2C276.18 128.35 276.62 128.46 277.06 128.53L281.01 122.72C279.31 121.29 277.42 120.09 275.33 119.14C272.24 117.75 268.91 117.06 265.31 117.06C261.85 117.06 258.73 117.71 255.95 118.99C253.17 120.28 250.8 122.01 248.83 124.18C246.86 126.42 245.34 129.01 244.25 131.96C243.16 134.91 242.62 138.08 242.62 141.47C242.62 144.86 243.21 148.03 244.4 150.98C245.59 153.93 247.2 156.49 249.23 158.66C251.33 160.83 253.76 162.56 256.5 163.85C259.25 165.14 262.21 165.78 265.4 165.78C268.92 165.78 272.23 165.08 275.32 163.7C277.58 162.68 279.61 161.38 281.41 159.79L277.36 154.25Z" fill="black"/>
<path d="M400.56 147.93C400.5 139.12 401.15 133.02 402.05 128.79C401.93 128.5 401.82 128.2 401.69 127.93C400.37 125.05 398.64 122.79 396.5 121.17C394.36 119.55 391.97 118.44 389.33 117.87C386.69 117.29 384.08 117.01 381.5 117.01C378.65 117.01 375.84 117.35 373.06 118.03C370.28 118.71 367.81 120 365.64 121.9C363.47 120 361 118.71 358.22 118.03C355.44 117.35 352.63 117.01 349.78 117.01C347.2 117.01 344.61 117.3 342 117.87C339.39 118.45 337.03 119.55 334.93 121.17C332.83 122.8 331.12 125.05 329.8 127.93C328.48 130.81 327.82 134.52 327.82 139.06L327.72 153.4C327.72 157.4 328.84 160.28 331.08 162.04C333.32 163.8 336.54 164.68 340.74 164.68C340.67 164.27 340.6 163.66 340.54 162.85C340.47 162.1 340.42 161.09 340.39 159.8C340.36 158.51 340.34 156.85 340.34 154.82V139.06C340.34 136.21 340.61 133.92 341.15 132.2C341.69 130.47 342.42 129.12 343.34 128.13C344.26 127.15 345.27 126.49 346.39 126.15C347.51 125.81 348.64 125.64 349.8 125.64C350.95 125.64 352.1 125.81 353.26 126.15C354.41 126.49 355.46 127.15 356.41 128.13C357.36 129.11 358.12 130.47 358.7 132.2C359.27 133.93 359.56 136.22 359.56 139.06L359.46 153.4C359.46 157.4 360.58 160.28 362.82 162.04C365.06 163.8 368.28 164.68 372.48 164.68C372.41 164.27 372.34 163.66 372.28 162.85C372.21 162.1 372.14 161.09 372.08 159.8C372.01 158.51 371.98 156.85 371.98 154.82V139.06C371.98 136.21 372.27 133.92 372.84 132.2C373.41 130.47 374.16 129.12 375.08 128.13C376 127.15 377.01 126.49 378.13 126.15C379.25 125.81 380.38 125.64 381.54 125.64C382.69 125.64 383.84 125.81 385 126.15C386.15 126.49 387.2 127.15 388.15 128.13C389.1 129.11 389.86 130.47 390.44 132.2C391.02 133.93 391.3 136.22 391.3 139.06L391.2 153.4C391.2 157.4 392.3 160.28 394.51 162.04C396.05 163.27 398.08 164.06 400.59 164.43V147.93H400.56Z" fill="black"/>
<path d="M626.88 156.72C626.88 156.92 626.91 157.15 626.98 157.42C627.11 157.95 627.18 158.45 627.18 158.91C627.18 160.1 626.91 161.18 626.39 162.14C625.86 163.1 625.13 163.91 624.2 164.57C622.34 165.89 620.09 166.56 617.44 166.56C615.25 166.56 613.1 166.06 610.98 165.07C608.86 164.08 606.94 162.59 605.22 160.6C603.5 158.61 602.12 156.15 601.1 153.2C600.07 150.25 599.56 146.79 599.56 142.82L599.66 114.1C599.66 110.12 600.72 107.28 602.84 105.55C604.96 103.83 608.04 102.97 612.08 102.97C612.01 103.43 611.95 104.06 611.88 104.86C611.81 105.59 611.76 106.57 611.73 107.79C611.7 109.02 611.68 110.62 611.68 112.61L611.78 118.87H625.1C625.1 121.85 624.27 124.24 622.62 126.03C620.96 127.82 618.61 128.71 615.56 128.71H611.78L611.68 142.82C611.68 145.6 611.93 147.94 612.42 149.83C612.92 151.72 613.59 153.26 614.46 154.45C616.25 156.7 618.57 157.83 621.42 157.83C622.61 157.83 623.81 157.67 625 157.33C625.65 157.12 626.28 156.92 626.88 156.72Z" fill="#FAA42C"/>
<path d="M716.03 142.81C716.03 146.06 715.5 149.12 714.44 152C713.38 154.88 711.89 157.42 709.97 159.6C708.05 161.72 705.71 163.41 702.96 164.67C700.21 165.93 697.15 166.56 693.77 166.56C690.72 166.56 687.86 165.93 685.17 164.67C682.49 163.41 680.12 161.72 678.06 159.6C676.07 157.48 674.5 154.98 673.34 152.1C672.18 149.22 671.6 146.12 671.6 142.81C671.6 139.5 672.11 136.4 673.14 133.52C674.17 130.64 675.64 128.1 677.56 125.92C679.48 123.8 681.82 122.11 684.57 120.85C687.32 119.59 690.38 118.96 693.76 118.96C697.47 118.96 700.85 119.82 703.9 121.54L703.8 107.53C703.8 103.56 704.89 100.72 707.08 99.03C709.27 97.34 712.41 96.5 716.52 96.5C716.45 96.9 716.39 97.49 716.32 98.29C716.25 99.02 716.2 100.01 716.17 101.27C716.14 102.53 716.12 104.15 716.12 106.14L716.03 142.81ZM693.77 158.01C694.63 158.01 695.64 157.81 696.8 157.41C697.96 157.01 699.07 156.27 700.13 155.17C701.19 154.08 702.08 152.52 702.81 150.5C703.54 148.48 703.9 145.88 703.9 142.7C703.9 139.52 703.53 136.92 702.81 134.9C702.08 132.88 701.19 131.32 700.13 130.23C699.07 129.14 697.96 128.39 696.8 127.99C695.64 127.59 694.63 127.39 693.77 127.39C692.91 127.39 691.9 127.59 690.74 127.99C689.58 128.39 688.47 129.13 687.41 130.23C686.35 131.32 685.46 132.88 684.73 134.9C684 136.92 683.64 139.52 683.64 142.7C683.64 145.88 684 148.48 684.73 150.5C685.46 152.52 686.35 154.08 687.41 155.17C688.47 156.26 689.58 157.01 690.74 157.41C691.9 157.81 692.91 158.01 693.77 158.01Z" fill="#FAA42C"/>
<path d="M756.4 125.91C758.45 128.03 760.06 130.53 761.22 133.41C762.38 136.29 762.96 139.39 762.96 142.7C762.96 146.01 762.43 149.11 761.37 151.99C760.31 154.87 758.82 157.37 756.9 159.49C754.98 161.68 752.64 163.4 749.89 164.66C747.14 165.92 744.08 166.55 740.7 166.55C737.65 166.55 734.79 165.92 732.1 164.66C729.42 163.4 727.05 161.68 724.99 159.49C723 157.37 721.43 154.87 720.27 151.99C719.11 149.11 718.53 146.01 718.53 142.7C718.53 139.39 719.04 136.29 720.07 133.41C721.1 130.53 722.57 128.03 724.49 125.91C726.41 123.72 728.75 122 731.5 120.74C734.25 119.48 737.31 118.85 740.69 118.85C743.8 118.85 746.7 119.48 749.39 120.74C752.08 122 754.41 123.73 756.4 125.91ZM740.7 158.01C741.56 158.01 742.57 157.81 743.73 157.41C744.89 157.01 746 156.25 747.06 155.12C748.12 153.99 749.01 152.44 749.74 150.45C750.47 148.46 750.83 145.88 750.83 142.7C750.83 139.52 750.46 136.92 749.74 134.9C749.01 132.88 748.12 131.32 747.06 130.23C746 129.14 744.89 128.39 743.73 127.99C742.57 127.59 741.56 127.39 740.7 127.39C739.84 127.39 738.83 127.59 737.67 127.99C736.51 128.39 735.4 129.13 734.34 130.23C733.28 131.32 732.39 132.88 731.66 134.9C730.93 136.92 730.57 139.52 730.57 142.7C730.57 145.88 730.93 148.46 731.66 150.45C732.39 152.44 733.28 154 734.34 155.12C735.4 156.25 736.51 157.01 737.67 157.41C738.83 157.81 739.84 158.01 740.7 158.01Z" fill="#FAA42C"/>
<path d="M666.58 143.13C666.58 139.16 667.46 135.41 669.03 132.03C667.97 129.9 666.64 128 665.04 126.33C663.05 124.14 660.72 122.42 658.03 121.16C655.35 119.9 652.45 119.27 649.33 119.27C645.95 119.27 642.89 119.9 640.14 121.16C637.39 122.42 635.06 124.14 633.13 126.33C631.21 128.45 629.73 130.95 628.71 133.83C627.68 136.71 627.17 139.81 627.17 143.12C627.17 146.43 627.75 149.53 628.91 152.41C630.07 155.29 631.64 157.79 633.63 159.91C635.68 162.1 638.05 163.82 640.74 165.08C643.42 166.34 646.29 166.97 649.34 166.97C652.72 166.97 655.78 166.34 658.53 165.08C661.28 163.82 663.61 162.1 665.54 159.91C666.99 158.31 668.19 156.5 669.15 154.46C667.5 151.04 666.58 147.19 666.58 143.13ZM658.38 150.88C657.65 152.87 656.76 154.43 655.7 155.55C654.64 156.68 653.53 157.44 652.37 157.84C651.21 158.24 650.2 158.44 649.34 158.44C648.48 158.44 647.47 158.24 646.31 157.84C645.15 157.44 644.04 156.68 642.98 155.55C641.92 154.42 641.03 152.87 640.3 150.88C639.57 148.89 639.21 146.31 639.21 143.13C639.21 139.95 639.57 137.35 640.3 135.33C641.03 133.31 641.92 131.75 642.98 130.66C644.04 129.57 645.15 128.82 646.31 128.42C647.47 128.02 648.48 127.82 649.34 127.82C650.2 127.82 651.21 128.02 652.37 128.42C653.53 128.82 654.64 129.56 655.7 130.66C656.76 131.75 657.65 133.31 658.38 135.33C659.11 137.35 659.47 139.95 659.47 143.13C659.47 146.31 659.11 148.89 658.38 150.88Z" fill="#FAA42C"/>
</svg>
